<?xml version="1.0" encoding="utf-8"?>
<!-- Svg Vector Icons : http://www.onlinewebfonts.com/icon -->
<!DOCTYPE svg PUBLIC "-//W3C//DTD SVG 1.1//EN" "http://www.w3.org/Graphics/SVG/1.1/DTD/svg11.dtd">
<svg version="1.1" xmlns="http://www.w3.org/2000/svg" xmlns:xlink="http://www.w3.org/1999/xlink" x="0px" y="0px" viewBox="0 0 1000 1000" enable-background="new 0 0 1000 1000" xml:space="preserve">
<metadata> Svg Vector Icons : http://www.onlinewebfonts.com/icon </metadata>
<g><path d="M425,355.4v95.1h-76.1v114H425v266.2H539V564.6h114.1v-114H539.1v-76.1c0-22.8,15.2-38,38-38h76.1V222.4H558C485.8,222.4,425,283.2,425,355.4L425,355.4z"/><path d="M500,10C230.5,10,10,230.5,10,500c0,269.4,220.5,490,490,490c269.5,0,490-220.5,490-490C990,230.5,769.5,10,500,10z M500,949.2C252.9,949.2,50.8,747,50.8,500C50.8,253,252.9,50.8,500,50.8S949.2,253,949.2,500C949.2,747,747.1,949.2,500,949.2z"/></g>
</svg>